<?xml version="1.0" encoding="utf-8"?>
<!-- Generator: Adobe Illustrator 27.1.1, SVG Export Plug-In . SVG Version: 6.00 Build 0)  -->
<svg version="1.1" id="Layer_1" xmlns="http://www.w3.org/2000/svg" xmlns:xlink="http://www.w3.org/1999/xlink" x="0px" y="0px"
	 viewBox="0 0 612 512" style="enable-background:new 0 0 612 512;" xml:space="preserve">
<style type="text/css">
	.st0{fill:#FFFFFF;}
</style>
<path class="st0" d="M109.4,175.5c15.4-36.5,38.7-66.2,70.1-89.8c28-21,59.2-34.6,93.7-39.8c51.9-7.7,100.9,1.1,145.6,29.2
	c53,33.3,86.2,80.8,97.9,142.2c10.1,53.2,1.4,103.8-27.3,150.1c-34.4,55.5-83.8,89.8-148.2,100.2c-59.4,9.7-114.2-3.6-162.6-40.2
	c-43.6-33-71.1-76.6-81.5-130.4C89.1,255.8,93.1,215.1,109.4,175.5 M342.5,212.1c-18.4-13.4-36.9-26.8-55.3-40.3
	c-4.8-3.5-9.8-5.2-15.3-2.4c-5.5,2.8-6.5,7.8-6.5,13.5c0.1,45,0,89.9,0,134.9c0,5.7-0.1,11.3,0,17c0.3,9.3,9.7,14.7,17.9,10.4
	c1.6-0.8,3.1-1.9,4.6-3c33.8-24.5,67.7-49.1,101.4-73.7c9.1-6.6,9.1-15.5,0.1-22.2C374.1,235,358.6,223.7,342.5,212.1z"/>
</svg>
